solid OpenSCAD_Model
  facet normal -1 0 0
    outer loop
      vertex -5 10 25
      vertex -5 20 35
      vertex -5 20 25
    endloop
  endfacet
  facet normal -1 -0 0
    outer loop
      vertex -5 20 35
      vertex -5 10 25
      vertex -5 10 35
    endloop
  endfacet
  facet normal -0 0 1
    outer loop
      vertex -5 20 35
      vertex 0 10 35
      vertex 0 20 35
    endloop
  endfacet
  facet normal 0 0 1
    outer loop
      vertex 0 10 35
      vertex -5 20 35
      vertex -5 10 35
    endloop
  endfacet
  facet normal 0 0 -1
    outer loop
      vertex -5 10 25
      vertex 0 20 25
      vertex 0 10 25
    endloop
  endfacet
  facet normal -0 0 -1
    outer loop
      vertex 0 20 25
      vertex -5 10 25
      vertex -5 20 25
    endloop
  endfacet
  facet normal 0 -1 0
    outer loop
      vertex -5 10 25
      vertex 0 10 35
      vertex -5 10 35
    endloop
  endfacet
  facet normal 0 -1 -0
    outer loop
      vertex 0 10 35
      vertex -5 10 25
      vertex 0 10 25
    endloop
  endfacet
  facet normal 0 1 -0
    outer loop
      vertex 0 20 25
      vertex -5 20 35
      vertex 0 20 35
    endloop
  endfacet
  facet normal 0 1 0
    outer loop
      vertex -5 20 35
      vertex 0 20 25
      vertex -5 20 25
    endloop
  endfacet
  facet normal -1 0 0
    outer loop
      vertex -5 -20 25
      vertex -5 -10 35
      vertex -5 -10 25
    endloop
  endfacet
  facet normal -1 -0 0
    outer loop
      vertex -5 -10 35
      vertex -5 -20 25
      vertex -5 -20 35
    endloop
  endfacet
  facet normal -0 0 1
    outer loop
      vertex -5 -10 35
      vertex 0 -20 35
      vertex 0 -10 35
    endloop
  endfacet
  facet normal 0 0 1
    outer loop
      vertex 0 -20 35
      vertex -5 -10 35
      vertex -5 -20 35
    endloop
  endfacet
  facet normal 0 0 -1
    outer loop
      vertex -5 -20 25
      vertex 0 -10 25
      vertex 0 -20 25
    endloop
  endfacet
  facet normal -0 0 -1
    outer loop
      vertex 0 -10 25
      vertex -5 -20 25
      vertex -5 -10 25
    endloop
  endfacet
  facet normal 0 -1 0
    outer loop
      vertex -5 -20 25
      vertex 0 -20 35
      vertex -5 -20 35
    endloop
  endfacet
  facet normal 0 -1 -0
    outer loop
      vertex 0 -20 35
      vertex -5 -20 25
      vertex 0 -20 25
    endloop
  endfacet
  facet normal 0 1 -0
    outer loop
      vertex 0 -10 25
      vertex -5 -10 35
      vertex 0 -10 35
    endloop
  endfacet
  facet normal 0 1 0
    outer loop
      vertex -5 -10 35
      vertex 0 -10 25
      vertex -5 -10 25
    endloop
  endfacet
  facet normal -1 0 0
    outer loop
      vertex -5 25 -10
      vertex -5 15 0
      vertex -5 25 10
    endloop
  endfacet
  facet normal -1 0 0
    outer loop
      vertex -5 25 -10
      vertex -5 -15 0
      vertex -5 15 0
    endloop
  endfacet
  facet normal -1 0 0
    outer loop
      vertex -5 -25 -10
      vertex -5 -15 0
      vertex -5 25 -10
    endloop
  endfacet
  facet normal -1 0 0
    outer loop
      vertex -5 -25 10
      vertex -5 -15 0
      vertex -5 -25 -10
    endloop
  endfacet
  facet normal -1 0 0
    outer loop
      vertex -5 -15 0
      vertex -5 -25 10
      vertex -5 -15 10
    endloop
  endfacet
  facet normal -1 -0 0
    outer loop
      vertex -5 25 10
      vertex -5 15 0
      vertex -5 15 10
    endloop
  endfacet
  facet normal -0 0 1
    outer loop
      vertex -5 15 0
      vertex 0 -15 0
      vertex 0 15 0
    endloop
  endfacet
  facet normal 0 0 1
    outer loop
      vertex 0 -15 0
      vertex -5 15 0
      vertex -5 -15 0
    endloop
  endfacet
  facet normal 0 0 -1
    outer loop
      vertex -5 -25 -10
      vertex 0 25 -10
      vertex 0 -25 -10
    endloop
  endfacet
  facet normal -0 0 -1
    outer loop
      vertex 0 25 -10
      vertex -5 -25 -10
      vertex -5 25 -10
    endloop
  endfacet
  facet normal -0 0 1
    outer loop
      vertex -5 25 10
      vertex 0 15 10
      vertex 0 25 10
    endloop
  endfacet
  facet normal 0 0 1
    outer loop
      vertex 0 15 10
      vertex -5 25 10
      vertex -5 15 10
    endloop
  endfacet
  facet normal 0 -1 0
    outer loop
      vertex -5 15 0
      vertex 0 15 10
      vertex -5 15 10
    endloop
  endfacet
  facet normal 0 -1 -0
    outer loop
      vertex 0 15 10
      vertex -5 15 0
      vertex 0 15 0
    endloop
  endfacet
  facet normal 0 1 -0
    outer loop
      vertex 0 25 -10
      vertex -5 25 10
      vertex 0 25 10
    endloop
  endfacet
  facet normal 0 1 0
    outer loop
      vertex -5 25 10
      vertex 0 25 -10
      vertex -5 25 -10
    endloop
  endfacet
  facet normal -0 0 1
    outer loop
      vertex -5 -15 10
      vertex 0 -25 10
      vertex 0 -15 10
    endloop
  endfacet
  facet normal 0 0 1
    outer loop
      vertex 0 -25 10
      vertex -5 -15 10
      vertex -5 -25 10
    endloop
  endfacet
  facet normal 0 1 -0
    outer loop
      vertex 0 -15 0
      vertex -5 -15 10
      vertex 0 -15 10
    endloop
  endfacet
  facet normal 0 1 0
    outer loop
      vertex -5 -15 10
      vertex 0 -15 0
      vertex -5 -15 0
    endloop
  endfacet
  facet normal 0 -1 0
    outer loop
      vertex -5 -25 -10
      vertex 0 -25 10
      vertex -5 -25 10
    endloop
  endfacet
  facet normal 0 -1 -0
    outer loop
      vertex 0 -25 10
      vertex -5 -25 -10
      vertex 0 -25 -10
    endloop
  endfacet
  facet normal -1 0 0
    outer loop
      vertex 0 -15 10
      vertex 0 15 10
      vertex 0 15 0
    endloop
  endfacet
  facet normal -1 0 0
    outer loop
      vertex 0 10 25
      vertex 0 -10 25
      vertex 0 10 35
    endloop
  endfacet
  facet normal -1 0 0
    outer loop
      vertex 0 15 10
      vertex 0 -15 10
      vertex 0 10 25
    endloop
  endfacet
  facet normal -1 0 0
    outer loop
      vertex 0 -15 10
      vertex 0 15 0
      vertex 0 -15 0
    endloop
  endfacet
  facet normal -1 -0 0
    outer loop
      vertex 0 10 25
      vertex 0 -15 10
      vertex 0 -10 25
    endloop
  endfacet
  facet normal -1 0 0
    outer loop
      vertex 0 -15 10
      vertex 0 -20 25
      vertex 0 -10 25
    endloop
  endfacet
  facet normal -1 0 0
    outer loop
      vertex 0 -30 40
      vertex 0 -20 25
      vertex 0 -25 10
    endloop
  endfacet
  facet normal -1 0 0
    outer loop
      vertex 0 -25 10
      vertex 0 -20 25
      vertex 0 -15 10
    endloop
  endfacet
  facet normal -1 0 0
    outer loop
      vertex 0 15 10
      vertex 0 20 25
      vertex 0 25 10
    endloop
  endfacet
  facet normal -1 -0 0
    outer loop
      vertex 0 20 25
      vertex 0 15 10
      vertex 0 10 25
    endloop
  endfacet
  facet normal -1 0 0
    outer loop
      vertex 0 25 10
      vertex 0 30 -20
      vertex 0 25 -10
    endloop
  endfacet
  facet normal -1 0 0
    outer loop
      vertex 0 30 -20
      vertex 0 -25 -10
      vertex 0 25 -10
    endloop
  endfacet
  facet normal -1 -0 0
    outer loop
      vertex 0 -25 -10
      vertex 0 -30 -20
      vertex 0 -25 10
    endloop
  endfacet
  facet normal -1 0 0
    outer loop
      vertex 0 -30 -20
      vertex 0 -25 -10
      vertex 0 30 -20
    endloop
  endfacet
  facet normal -1 0 0
    outer loop
      vertex 0 30 -20
      vertex 0 25 10
      vertex 0 30 40
    endloop
  endfacet
  facet normal -1 0 0
    outer loop
      vertex 0 20 25
      vertex 0 30 40
      vertex 0 25 10
    endloop
  endfacet
  facet normal -1 0 0
    outer loop
      vertex 0 20 35
      vertex 0 30 40
      vertex 0 20 25
    endloop
  endfacet
  facet normal -1 0 0
    outer loop
      vertex 0 10 35
      vertex 0 30 40
      vertex 0 20 35
    endloop
  endfacet
  facet normal -1 0 0
    outer loop
      vertex 0 -10 35
      vertex 0 10 35
      vertex 0 -10 25
    endloop
  endfacet
  facet normal -1 0 0
    outer loop
      vertex 0 -10 35
      vertex 0 30 40
      vertex 0 10 35
    endloop
  endfacet
  facet normal -1 0 0
    outer loop
      vertex 0 -30 40
      vertex 0 -10 35
      vertex 0 -20 35
    endloop
  endfacet
  facet normal -1 0 0
    outer loop
      vertex 0 -10 35
      vertex 0 -30 40
      vertex 0 30 40
    endloop
  endfacet
  facet normal -1 0 0
    outer loop
      vertex 0 -20 25
      vertex 0 -30 40
      vertex 0 -20 35
    endloop
  endfacet
  facet normal -1 0 0
    outer loop
      vertex 0 -30 40
      vertex 0 -25 10
      vertex 0 -30 -20
    endloop
  endfacet
  facet normal -0 0 1
    outer loop
      vertex 0 30 40
      vertex 10 -30 40
      vertex 10 30 40
    endloop
  endfacet
  facet normal 0 0 1
    outer loop
      vertex 10 -30 40
      vertex 0 30 40
      vertex 0 -30 40
    endloop
  endfacet
  facet normal 1 -0 0
    outer loop
      vertex 10 -30 40
      vertex 10 30 -20
      vertex 10 30 40
    endloop
  endfacet
  facet normal 1 0 0
    outer loop
      vertex 10 30 -20
      vertex 10 -30 40
      vertex 10 -30 -20
    endloop
  endfacet
  facet normal 0 0 -1
    outer loop
      vertex 0 -30 -20
      vertex 10 30 -20
      vertex 10 -30 -20
    endloop
  endfacet
  facet normal -0 0 -1
    outer loop
      vertex 10 30 -20
      vertex 0 -30 -20
      vertex 0 30 -20
    endloop
  endfacet
  facet normal 0 -1 0
    outer loop
      vertex 0 -30 -20
      vertex 10 -30 40
      vertex 0 -30 40
    endloop
  endfacet
  facet normal 0 -1 -0
    outer loop
      vertex 10 -30 40
      vertex 0 -30 -20
      vertex 10 -30 -20
    endloop
  endfacet
  facet normal 0 1 -0
    outer loop
      vertex 10 30 -20
      vertex 0 30 40
      vertex 10 30 40
    endloop
  endfacet
  facet normal 0 1 0
    outer loop
      vertex 0 30 40
      vertex 10 30 -20
      vertex 0 30 -20
    endloop
  endfacet
endsolid OpenSCAD_Model
