# Blender v2.79 (sub 0) OBJ File: 'bareShrub.blend'
# www.blender.org
mtllib bareShrub.mtl
o Cube
v 0.166568 -0.149431 -0.166568
v 0.166568 -0.149431 0.166568
v -0.166568 -0.149431 0.166568
v -0.166568 -0.149431 -0.166568
v 0.166568 0.166568 -0.166568
v 0.166568 0.166568 0.166568
v -0.166568 0.166568 0.166568
v -0.166568 0.166568 -0.166568
v 1.107101 5.135410 0.370807
v 1.107101 5.135410 0.472037
v 1.005872 5.135410 0.370807
v 1.005872 5.135410 0.472037
v 0.166568 2.977769 -0.166568
v 0.166568 2.763719 0.166568
v 0.166568 2.539575 0.166568
v 1.610545 4.124559 0.098315
v 1.610545 4.038185 0.098315
v 1.610545 4.207045 -0.030060
v -0.166568 3.457839 0.166568
v -0.166568 3.809427 0.166568
v 0.166568 3.881318 0.166568
v 0.166568 3.520586 0.166568
v -0.055186 4.818818 1.635243
v -0.055186 4.935302 1.635243
v 0.055185 4.959121 1.635243
v 0.055185 4.839607 1.635243
v -0.166568 2.180323 -0.166568
v -0.166568 1.965153 0.166568
v -0.166568 2.395133 0.166568
v -1.723899 3.855530 0.101031
v -1.723899 4.031745 0.101031
v -1.723899 3.943712 -0.035496
v 0.166568 3.393379 -0.166568
v 0.166568 3.707563 -0.166568
v -0.166568 3.756017 -0.166568
v -0.166568 3.152764 -0.166568
v 0.060104 4.280652 -2.043379
v 0.060104 4.394020 -2.043379
v -0.060103 4.411504 -2.043379
v -0.060103 4.193830 -2.043379
v -0.027703 3.966479 0.202748
v -0.022764 3.925204 -0.100657
v -1.246640 4.943975 -0.172631
v -1.281616 4.902826 -0.188662
v -1.281616 4.915816 -0.107638
v -1.247841 4.954014 -0.098838
vn 0.0000 -1.0000 0.0000
vn 1.0000 0.0000 0.0000
vn -0.0000 0.0000 1.0000
vn -1.0000 0.0000 -0.0000
vn 0.0000 0.0000 -1.0000
vn 0.0000 1.0000 0.0000
vn 0.5085 -0.5211 -0.6855
vn 0.9313 -0.3383 0.1353
vn -0.6088 0.6675 0.4289
vn 0.0472 0.0000 0.9989
vn -0.1701 0.7883 -0.5914
vn 0.0437 -0.2639 0.9636
vn 0.1378 -0.7317 0.6676
vn 0.9971 0.0000 0.0756
vn -0.9971 0.0000 0.0756
vn -0.7060 -0.5949 -0.3843
vn 0.6714 0.6228 -0.4016
vn -0.0420 0.0000 0.9991
vn -0.9984 0.0000 -0.0566
vn 0.0371 0.3328 -0.9423
vn 0.9984 0.0000 -0.0566
vn 0.1357 0.9329 0.3335
vn 0.5405 -0.7484 -0.3845
vn -0.7350 0.6698 -0.1053
vn -0.2450 -0.0067 0.9695
vn -0.7414 0.6666 -0.0770
vn 0.6402 0.7625 -0.0933
vn 0.2149 0.1905 -0.9579
vn -0.7136 -0.6917 0.1109
usemtl Material
s off
f 1//1 2//1 3//1 4//1
f 1//2 5//2 6//2 2//2
f 2//3 6//3 7//3 3//3
f 3//4 7//4 8//4 4//4
f 5//5 1//5 4//5 8//5
f 2//2 1//2 13//2 15//2
f 9//6 11//6 12//6 10//6
f 4//4 3//4 28//4 27//4
f 1//5 4//5 27//5 36//5 33//5 13//5
f 3//3 2//3 15//3 14//3 22//3 19//3 29//3 28//3
f 17//2 18//2 16//2
f 15//7 13//7 18//7 17//7
f 14//8 13//8 33//8 34//8 9//8 10//8 21//8 22//8
f 13//9 14//9 16//9 18//9
f 14//10 15//10 17//10 16//10
f 23//3 26//3 25//3 24//3
f 21//11 20//11 24//11 25//11
f 20//12 21//12 10//12 12//12 41//12
f 19//13 22//13 26//13 23//13
f 22//14 21//14 25//14 26//14
f 20//15 19//15 23//15 24//15
f 32//4 30//4 31//4
f 27//16 28//16 30//16 32//16
f 29//4 19//4 20//4 35//4 36//4 27//4
f 29//17 27//17 32//17 31//17
f 28//18 29//18 31//18 30//18
f 37//5 40//5 39//5 38//5
f 36//19 35//19 39//19 40//19
f 34//20 35//20 42//20 11//20 9//20
f 34//21 33//21 37//21 38//21
f 35//22 34//22 38//22 39//22
f 33//23 36//23 40//23 37//23
f 44//24 45//24 46//24 43//24
f 20//25 41//25 46//25 45//25
f 42//26 41//26 12//26 11//26
f 41//27 42//27 43//27 46//27
f 42//28 35//28 44//28 43//28
f 35//29 20//29 45//29 44//29
