# Blender v2.79 (sub 0) OBJ File: 'bench.blend'
# www.blender.org
mtllib bench.mtl
o Cube.009
v -4.263046 5.987535 7.000000
v -4.447540 5.948024 7.000000
v -4.263046 5.987535 -7.000000
v -4.447540 5.948024 -7.000000
v -4.444244 6.833630 7.000000
v -4.628738 6.794119 7.000000
v -4.444244 6.833630 -7.000000
v -4.628738 6.794119 -7.000000
vn 0.2094 -0.9778 0.0000
vn 0.0000 0.0000 -1.0000
vn -0.2094 0.9778 0.0000
vn 0.0000 0.0000 1.0000
vn 0.9778 0.2094 0.0000
vn -0.9778 -0.2094 0.0000
usemtl None
s off
f 1//1 2//1 4//1 3//1
f 3//2 4//2 8//2 7//2
f 7//3 8//3 6//3 5//3
f 5//4 6//4 2//4 1//4
f 3//5 7//5 5//5 1//5
f 8//6 4//6 2//6 6//6
o Cube.008
v -4.321483 7.105358 7.000000
v -4.505977 7.065847 7.000000
v -4.321483 7.105358 -7.000000
v -4.505977 7.065847 -7.000000
v -4.502681 7.951453 7.000000
v -4.687175 7.911942 7.000000
v -4.502681 7.951453 -7.000000
v -4.687175 7.911942 -7.000000
vn 0.2094 -0.9778 0.0000
vn 0.0000 0.0000 -1.0000
vn -0.2094 0.9778 0.0000
vn 0.0000 0.0000 1.0000
vn 0.9778 0.2094 0.0000
vn -0.9778 -0.2094 0.0000
usemtl None
s off
f 9//7 10//7 12//7 11//7
f 11//8 12//8 16//8 15//8
f 15//9 16//9 14//9 13//9
f 13//10 14//10 10//10 9//10
f 11//11 15//11 13//11 9//11
f 16//12 12//12 10//12 14//12
o Cube.007
v -3.983746 4.942447 7.000000
v -4.168240 4.902936 7.000000
v -3.983746 4.942447 -7.000000
v -4.168240 4.902936 -7.000000
v -4.164944 5.788542 7.000000
v -4.349438 5.749031 7.000000
v -4.164944 5.788542 -7.000000
v -4.349438 5.749031 -7.000000
vn 0.2094 -0.9778 0.0000
vn 0.0000 0.0000 -1.0000
vn -0.2094 0.9778 0.0000
vn 0.0000 0.0000 1.0000
vn 0.9778 0.2094 0.0000
vn -0.9778 -0.2094 0.0000
usemtl None
s off
f 17//13 18//13 20//13 19//13
f 19//14 20//14 24//14 23//14
f 23//15 24//15 22//15 21//15
f 21//16 22//16 18//16 17//16
f 19//17 23//17 21//17 17//17
f 24//18 20//18 18//18 22//18
o Cube.006
v -3.793619 3.824624 7.000000
v -3.978113 3.785113 7.000000
v -3.793619 3.824624 -7.000000
v -3.978113 3.785113 -7.000000
v -3.974817 4.670719 7.000000
v -4.159311 4.631208 7.000000
v -3.974817 4.670719 -7.000000
v -4.159311 4.631208 -7.000000
vn 0.2094 -0.9778 0.0000
vn 0.0000 0.0000 -1.0000
vn -0.2094 0.9778 0.0000
vn 0.0000 0.0000 1.0000
vn 0.9778 0.2094 0.0000
vn -0.9778 -0.2094 0.0000
usemtl None
s off
f 25//19 26//19 28//19 27//19
f 27//20 28//20 32//20 31//20
f 31//21 32//21 30//21 29//21
f 29//22 30//22 26//22 25//22
f 27//23 31//23 29//23 25//23
f 32//24 28//24 26//24 30//24
o Cube.005
v -3.562569 2.773843 7.000000
v -3.747063 2.734332 7.000000
v -3.562569 2.773843 -7.000000
v -3.747063 2.734332 -7.000000
v -3.743767 3.619938 7.000000
v -3.928262 3.580427 7.000000
v -3.743767 3.619938 -7.000000
v -3.928262 3.580427 -7.000000
vn 0.2094 -0.9778 0.0000
vn -0.0000 0.0000 -1.0000
vn -0.2094 0.9778 0.0000
vn 0.0000 0.0000 1.0000
vn 0.9778 0.2094 0.0000
vn -0.9778 -0.2094 0.0000
usemtl None
s off
f 33//25 34//25 36//25 35//25
f 35//26 36//26 40//26 39//26
f 39//27 40//27 38//27 37//27
f 37//28 38//28 34//28 33//28
f 35//29 39//29 37//29 33//29
f 40//30 36//30 34//30 38//30
o Cube.004
v -3.011312 2.731062 7.000000
v -3.011312 2.919739 7.000000
v -3.011312 2.731062 -7.000000
v -3.011312 2.919739 -7.000000
v -2.146031 2.731062 7.000000
v -2.146031 2.919739 7.000000
v -2.146031 2.731062 -7.000000
v -2.146031 2.919739 -7.000000
vn -1.0000 0.0000 0.0000
vn 0.0000 0.0000 -1.0000
vn 1.0000 0.0000 0.0000
vn 0.0000 0.0000 1.0000
vn 0.0000 -1.0000 0.0000
vn 0.0000 1.0000 0.0000
usemtl None
s off
f 41//31 42//31 44//31 43//31
f 43//32 44//32 48//32 47//32
f 47//33 48//33 46//33 45//33
f 45//34 46//34 42//34 41//34
f 43//35 47//35 45//35 41//35
f 48//36 44//36 42//36 46//36
o Cube.003
v -1.838840 2.731062 7.000000
v -1.838840 2.919739 7.000000
v -1.838840 2.731062 -7.000000
v -1.838840 2.919739 -7.000000
v -0.973560 2.731062 7.000000
v -0.973560 2.919739 7.000000
v -0.973560 2.731062 -7.000000
v -0.973560 2.919739 -7.000000
vn -1.0000 0.0000 0.0000
vn 0.0000 0.0000 -1.0000
vn 1.0000 0.0000 0.0000
vn 0.0000 0.0000 1.0000
vn 0.0000 -1.0000 0.0000
vn 0.0000 1.0000 0.0000
usemtl None
s off
f 49//37 50//37 52//37 51//37
f 51//38 52//38 56//38 55//38
f 55//39 56//39 54//39 53//39
f 53//40 54//40 50//40 49//40
f 51//41 55//41 53//41 49//41
f 56//42 52//42 50//42 54//42
o Cube.002
v -0.661679 2.731062 7.000000
v -0.661679 2.919739 7.000000
v -0.661679 2.731062 -7.000000
v -0.661679 2.919739 -7.000000
v 0.203601 2.731062 7.000000
v 0.203601 2.919739 7.000000
v 0.203601 2.731062 -7.000000
v 0.203601 2.919739 -7.000000
vn -1.0000 0.0000 0.0000
vn 0.0000 0.0000 -1.0000
vn 1.0000 0.0000 0.0000
vn 0.0000 0.0000 1.0000
vn 0.0000 -1.0000 0.0000
vn 0.0000 1.0000 0.0000
usemtl None
s off
f 57//43 58//43 60//43 59//43
f 59//44 60//44 64//44 63//44
f 63//45 64//45 62//45 61//45
f 61//46 62//46 58//46 57//46
f 59//47 63//47 61//47 57//47
f 64//48 60//48 58//48 62//48
o Cube.001
v -4.086635 -0.113897 -7.379655
v -4.086635 -0.113897 -6.620345
v -4.845945 -0.113897 -6.620345
v -4.845945 -0.113897 -7.379655
v -3.270476 2.348433 -7.379655
v -3.270477 2.348433 -6.620345
v -4.029787 2.903632 -7.379655
v -4.029787 2.903632 -6.620345
v -3.270476 3.071562 -7.379655
v -3.270477 3.071562 -6.620345
v -5.116968 7.819418 -6.620346
v -5.116968 7.819418 -7.379655
v -4.357657 7.987348 -7.379655
v -4.357658 7.987348 -6.620345
v 0.362163 2.348433 -7.379653
v 0.362163 2.348433 -6.620343
v 0.362163 3.071562 -7.379653
v 0.362163 3.071562 -6.620343
v 1.068041 2.413548 -7.379653
v 1.068041 2.413548 -6.620342
v 0.387088 -0.054724 -7.379652
v 0.387087 -0.054724 -6.620342
v 1.092967 0.010391 -7.379652
v 1.092966 0.010391 -6.620341
vn 0.0000 -1.0000 0.0000
vn 0.0000 0.0000 1.0000
vn 0.9492 -0.3146 0.0000
vn -0.9653 0.2611 0.0000
vn -0.0000 -0.0000 -1.0000
vn 0.9764 0.2159 0.0000
vn -0.2159 0.9764 0.0000
vn -0.9764 -0.2159 0.0000
vn 0.0000 1.0000 0.0000
vn 0.0919 -0.9958 0.0000
vn 0.6819 0.7315 0.0000
vn 0.9999 0.0104 0.0000
vn -0.9999 -0.0104 -0.0000
usemtl Material
s off
f 65//49 66//49 67//49 68//49
f 67//50 66//50 70//50 72//50
f 66//51 65//51 69//51 70//51
f 68//52 67//52 72//52 71//52
f 65//53 68//53 71//53 69//53
f 74//54 73//54 77//54 78//54
f 69//53 71//53 73//53
f 72//50 70//50 74//50
f 69//53 73//53 81//53 79//53
f 77//55 76//55 75//55 78//55
f 72//50 74//50 78//50 75//50
f 71//56 72//56 75//56 76//56
f 73//53 71//53 76//53 77//53
f 82//50 80//50 84//50
f 73//57 74//57 82//57 81//57
f 70//49 69//49 79//49 80//49
f 74//50 70//50 80//50 82//50
f 86//58 85//58 87//58 88//58
f 81//59 82//59 84//59 83//59
f 79//53 81//53 83//53
f 84//50 80//50 86//50 88//50
f 83//60 84//60 88//60 87//60
f 79//53 83//53 87//53 85//53
f 80//61 79//61 85//61 86//61
o Cube
v -4.086635 -0.113897 6.620345
v -4.086635 -0.113897 7.379655
v -4.845945 -0.113897 7.379655
v -4.845945 -0.113897 6.620345
v -3.270476 2.348433 6.620345
v -3.270477 2.348433 7.379655
v -4.029787 2.903632 6.620345
v -4.029787 2.903632 7.379655
v -3.270476 3.071562 6.620345
v -3.270477 3.071562 7.379655
v -5.116968 7.819418 7.379654
v -5.116968 7.819418 6.620345
v -4.357657 7.987348 6.620345
v -4.357658 7.987348 7.379655
v 0.362163 2.348433 6.620347
v 0.362163 2.348433 7.379657
v 0.362163 3.071562 6.620347
v 0.362163 3.071562 7.379657
v 1.068041 2.413548 6.620347
v 1.068041 2.413548 7.379658
v 0.387088 -0.054724 6.620348
v 0.387087 -0.054724 7.379658
v 1.092967 0.010391 6.620348
v 1.092966 0.010391 7.379659
vn 0.0000 -1.0000 0.0000
vn -0.0000 0.0000 1.0000
vn 0.9492 -0.3146 0.0000
vn -0.9653 0.2611 0.0000
vn 0.0000 -0.0000 -1.0000
vn 0.9764 0.2159 0.0000
vn -0.2159 0.9764 0.0000
vn -0.9764 -0.2159 0.0000
vn 0.0000 1.0000 0.0000
vn 0.0919 -0.9958 0.0000
vn 0.6819 0.7315 0.0000
vn 0.9999 0.0104 0.0000
vn -0.9999 -0.0104 -0.0000
usemtl Material
s off
f 89//62 90//62 91//62 92//62
f 91//63 90//63 94//63 96//63
f 90//64 89//64 93//64 94//64
f 92//65 91//65 96//65 95//65
f 89//66 92//66 95//66 93//66
f 98//67 97//67 101//67 102//67
f 93//66 95//66 97//66
f 96//63 94//63 98//63
f 93//66 97//66 105//66 103//66
f 101//68 100//68 99//68 102//68
f 96//63 98//63 102//63 99//63
f 95//69 96//69 99//69 100//69
f 97//66 95//66 100//66 101//66
f 106//63 104//63 108//63
f 97//70 98//70 106//70 105//70
f 94//62 93//62 103//62 104//62
f 98//63 94//63 104//63 106//63
f 110//71 109//71 111//71 112//71
f 105//72 106//72 108//72 107//72
f 103//66 105//66 107//66
f 108//63 104//63 110//63 112//63
f 107//73 108//73 112//73 111//73
f 103//66 107//66 111//66 109//66
f 104//74 103//74 109//74 110//74
