# Blender v2.79 (sub 0) OBJ File: 'Fence_TwoPost.blend'
# www.blender.org
mtllib Fence_TwoPost.mtl
o Cube.005
v 8.021127 1.411314 0.148557
v 8.021127 1.708428 0.148557
v 8.021127 1.411314 -0.148557
v 8.021127 1.708428 -0.148557
v -0.096866 1.411314 0.148557
v -0.096866 1.708428 0.148557
v -0.096866 1.411314 -0.148557
v -0.096866 1.708428 -0.148557
vn 1.0000 0.0000 0.0000
vn 0.0000 0.0000 -1.0000
vn -1.0000 0.0000 0.0000
vn 0.0000 0.0000 1.0000
vn 0.0000 -1.0000 0.0000
vn 0.0000 1.0000 0.0000
usemtl None
s off
f 1//1 3//1 4//1 2//1
f 3//2 7//2 8//2 4//2
f 7//3 5//3 6//3 8//3
f 5//4 1//4 2//4 6//4
f 3//5 1//5 5//5 7//5
f 8//6 6//6 2//6 4//6
o Cube.004
v 8.021127 0.213621 0.148557
v 8.021127 0.510735 0.148557
v 8.021127 0.213621 -0.148557
v 8.021127 0.510735 -0.148557
v -0.096866 0.213621 0.148557
v -0.096866 0.510735 0.148557
v -0.096866 0.213621 -0.148557
v -0.096866 0.510735 -0.148557
vn 1.0000 0.0000 0.0000
vn 0.0000 0.0000 -1.0000
vn -1.0000 0.0000 0.0000
vn 0.0000 0.0000 1.0000
vn 0.0000 -1.0000 0.0000
vn 0.0000 1.0000 0.0000
usemtl None
s off
f 9//7 11//7 12//7 10//7
f 11//8 15//8 16//8 12//8
f 15//9 13//9 14//9 16//9
f 13//10 9//10 10//10 14//10
f 11//11 9//11 13//11 15//11
f 16//12 14//12 10//12 12//12
o Cube.003
v 8.021127 2.850067 0.148557
v 8.021127 3.147181 0.148557
v 8.021127 2.850067 -0.148557
v 8.021127 3.147181 -0.148557
v -0.096866 2.850067 0.148557
v -0.096866 3.147181 0.148557
v -0.096866 2.850067 -0.148557
v -0.096866 3.147181 -0.148557
vn 1.0000 0.0000 0.0000
vn 0.0000 0.0000 -1.0000
vn -1.0000 0.0000 0.0000
vn 0.0000 0.0000 1.0000
vn 0.0000 -1.0000 0.0000
vn 0.0000 1.0000 0.0000
usemtl None
s off
f 17//13 19//13 20//13 18//13
f 19//14 23//14 24//14 20//14
f 23//15 21//15 22//15 24//15
f 21//16 17//16 18//16 22//16
f 19//17 17//17 21//17 23//17
f 24//18 22//18 18//18 20//18
o Cube.002
v 8.021127 4.047760 0.148557
v 8.021127 4.344874 0.148557
v 8.021127 4.047760 -0.148557
v 8.021127 4.344874 -0.148557
v -0.096866 4.047760 0.148557
v -0.096866 4.344874 0.148557
v -0.096866 4.047760 -0.148557
v -0.096866 4.344874 -0.148557
vn 1.0000 0.0000 0.0000
vn 0.0000 0.0000 -1.0000
vn -1.0000 0.0000 0.0000
vn 0.0000 0.0000 1.0000
vn 0.0000 -1.0000 0.0000
vn 0.0000 1.0000 0.0000
usemtl None
s off
f 25//19 27//19 28//19 26//19
f 27//20 31//20 32//20 28//20
f 31//21 29//21 30//21 32//21
f 29//22 25//22 26//22 30//22
f 27//23 25//23 29//23 31//23
f 32//24 30//24 26//24 28//24
o Cube.001
v 8.233805 4.512601 -0.234156
v 8.233805 4.512601 0.234156
v 7.765492 4.512601 0.234156
v 7.765493 4.512601 -0.234156
v 8.233805 0.068076 -0.234156
v 8.233805 0.068076 0.234156
v 7.765492 0.068076 0.234156
v 7.765493 0.068076 -0.234156
vn 0.0000 1.0000 0.0000
vn 0.0000 -1.0000 0.0000
vn 1.0000 0.0000 0.0000
vn -0.0000 0.0000 1.0000
vn -1.0000 -0.0000 -0.0000
vn 0.0000 -0.0000 -1.0000
usemtl Material
s off
f 33//25 36//25 35//25 34//25
f 37//26 38//26 39//26 40//26
f 33//27 34//27 38//27 37//27
f 34//28 35//28 39//28 38//28
f 35//29 36//29 40//29 39//29
f 37//30 40//30 36//30 33//30
o Cube
v 0.234156 4.512601 -0.234156
v 0.234156 4.512601 0.234156
v -0.234156 4.512601 0.234156
v -0.234156 4.512601 -0.234156
v 0.234156 0.068076 -0.234156
v 0.234156 0.068076 0.234156
v -0.234156 0.068076 0.234156
v -0.234156 0.068076 -0.234156
vn 0.0000 1.0000 0.0000
vn 0.0000 -1.0000 0.0000
vn 1.0000 0.0000 0.0000
vn -0.0000 0.0000 1.0000
vn -1.0000 0.0000 -0.0000
vn 0.0000 -0.0000 -1.0000
usemtl Material
s off
f 41//31 44//31 43//31 42//31
f 45//32 46//32 47//32 48//32
f 41//33 42//33 46//33 45//33
f 42//34 43//34 47//34 46//34
f 43//35 44//35 48//35 47//35
f 45//36 48//36 44//36 41//36
