# Blender v2.79 (sub 0) OBJ File: 'spire1.blend'
# www.blender.org
mtllib spire1.mtl
o Cube
v 1.000000 -0.200000 -1.000000
v 1.000000 -0.200000 1.000000
v -1.000000 -0.200000 1.000000
v -1.000000 -0.200000 -1.000000
v 0.774797 0.200000 -0.774797
v 0.774797 0.200000 0.774798
v -0.774797 0.200000 0.774797
v -0.774797 0.200000 -0.774797
v 0.476496 1.217919 -0.476495
v 0.476495 1.217919 0.476496
v -0.476496 1.217919 0.476496
v -0.476496 1.217919 -0.476496
v 0.155584 2.362170 -0.155584
v 0.155584 2.362170 0.155585
v -0.155584 2.362170 0.155584
v -0.155584 2.362170 -0.155584
v -0.000000 3.258288 0.000000
vn 0.0000 -1.0000 0.0000
vn 0.9596 0.2812 0.0000
vn 0.8714 0.4906 0.0000
vn -0.0000 0.4906 0.8714
vn -0.8714 0.4906 -0.0000
vn 0.0000 0.4906 -0.8714
vn -0.9628 0.2700 -0.0000
vn -0.9596 0.2812 -0.0000
vn 0.0000 0.2812 -0.9596
vn -0.0000 0.2812 0.9596
vn -0.0000 0.1711 0.9853
vn 0.0000 0.2700 -0.9628
vn -0.0000 0.2700 0.9629
vn 0.9628 0.2700 0.0000
vn 0.9853 0.1711 0.0000
vn -0.9853 0.1711 0.0000
vn 0.0000 0.1711 -0.9853
usemtl Material
s off
f 1//1 2//1 3//1 4//1
f 6//2 5//2 9//2 10//2
f 1//3 5//3 6//3 2//3
f 2//4 6//4 7//4 3//4
f 3//5 7//5 8//5 4//5
f 5//6 1//6 4//6 8//6
f 12//7 11//7 15//7 16//7
f 8//8 7//8 11//8 12//8
f 5//9 8//9 12//9 9//9
f 7//10 6//10 10//10 11//10
f 15//11 14//11 17//11
f 9//12 12//12 16//12 13//12
f 11//13 10//13 14//13 15//13
f 10//14 9//14 13//14 14//14
f 14//15 13//15 17//15
f 16//16 15//16 17//16
f 13//17 16//17 17//17
